<svg id="visual" viewBox="0 0 900 900" width="900" height="900" xmlns="http://www.w3.org/2000/svg" xmlns:xlink="http://www.w3.org/1999/xlink" version="1.1"><rect x="0" y="0" width="900" height="900" fill="#ffa2eb"></rect><defs><linearGradient id="grad1_0" x1="0%" y1="0%" x2="100%" y2="100%"><stop offset="30%" stop-color="#6600ff" stop-opacity="1"></stop><stop offset="70%" stop-color="#6600ff" stop-opacity="1"></stop></linearGradient></defs><defs><linearGradient id="grad1_1" x1="0%" y1="0%" x2="100%" y2="100%"><stop offset="30%" stop-color="#6600ff" stop-opacity="1"></stop><stop offset="70%" stop-color="#961ff8" stop-opacity="1"></stop></linearGradient></defs><defs><linearGradient id="grad1_2" x1="0%" y1="0%" x2="100%" y2="100%"><stop offset="30%" stop-color="#b73af2" stop-opacity="1"></stop><stop offset="70%" stop-color="#961ff8" stop-opacity="1"></stop></linearGradient></defs><defs><linearGradient id="grad1_3" x1="0%" y1="0%" x2="100%" y2="100%"><stop offset="30%" stop-color="#b73af2" stop-opacity="1"></stop><stop offset="70%" stop-color="#d054ed" stop-opacity="1"></stop></linearGradient></defs><defs><linearGradient id="grad1_4" x1="0%" y1="0%" x2="100%" y2="100%"><stop offset="30%" stop-color="#e46eeb" stop-opacity="1"></stop><stop offset="70%" stop-color="#d054ed" stop-opacity="1"></stop></linearGradient></defs><defs><linearGradient id="grad1_5" x1="0%" y1="0%" x2="100%" y2="100%"><stop offset="30%" stop-color="#e46eeb" stop-opacity="1"></stop><stop offset="70%" stop-color="#f388ea" stop-opacity="1"></stop></linearGradient></defs><defs><linearGradient id="grad1_6" x1="0%" y1="0%" x2="100%" y2="100%"><stop offset="30%" stop-color="#ffa2eb" stop-opacity="1"></stop><stop offset="70%" stop-color="#f388ea" stop-opacity="1"></stop></linearGradient></defs><defs><linearGradient id="grad2_0" x1="0%" y1="0%" x2="100%" y2="100%"><stop offset="30%" stop-color="#6600ff" stop-opacity="1"></stop><stop offset="70%" stop-color="#6600ff" stop-opacity="1"></stop></linearGradient></defs><defs><linearGradient id="grad2_1" x1="0%" y1="0%" x2="100%" y2="100%"><stop offset="30%" stop-color="#961ff8" stop-opacity="1"></stop><stop offset="70%" stop-color="#6600ff" stop-opacity="1"></stop></linearGradient></defs><defs><linearGradient id="grad2_2" x1="0%" y1="0%" x2="100%" y2="100%"><stop offset="30%" stop-color="#961ff8" stop-opacity="1"></stop><stop offset="70%" stop-color="#b73af2" stop-opacity="1"></stop></linearGradient></defs><defs><linearGradient id="grad2_3" x1="0%" y1="0%" x2="100%" y2="100%"><stop offset="30%" stop-color="#d054ed" stop-opacity="1"></stop><stop offset="70%" stop-color="#b73af2" stop-opacity="1"></stop></linearGradient></defs><defs><linearGradient id="grad2_4" x1="0%" y1="0%" x2="100%" y2="100%"><stop offset="30%" stop-color="#d054ed" stop-opacity="1"></stop><stop offset="70%" stop-color="#e46eeb" stop-opacity="1"></stop></linearGradient></defs><defs><linearGradient id="grad2_5" x1="0%" y1="0%" x2="100%" y2="100%"><stop offset="30%" stop-color="#f388ea" stop-opacity="1"></stop><stop offset="70%" stop-color="#e46eeb" stop-opacity="1"></stop></linearGradient></defs><defs><linearGradient id="grad2_6" x1="0%" y1="0%" x2="100%" y2="100%"><stop offset="30%" stop-color="#f388ea" stop-opacity="1"></stop><stop offset="70%" stop-color="#ffa2eb" stop-opacity="1"></stop></linearGradient></defs><g transform="translate(900, 0)"><path d="M0 350C-22.4 343.9 -44.8 337.9 -65.7 330.5C-86.7 323.2 -106.1 314.6 -127.8 308.6C-149.5 302.6 -173.5 299.1 -192.2 287.7C-210.9 276.2 -224.3 256.7 -240.4 240.4C-256.5 224.1 -275.2 211 -290.2 193.9C-305.1 176.8 -316.3 155.8 -323.4 133.9C-330.5 112.1 -333.6 89.6 -337.4 67.1C-341.2 44.7 -345.6 22.3 -350 0L0 0Z" fill="#fa95ea"></path><path d="M0 300C-19.2 294.8 -38.4 289.6 -56.4 283.3C-74.3 277 -90.9 269.6 -109.6 264.5C-128.2 259.3 -148.7 256.4 -164.8 246.6C-180.8 236.8 -192.3 220.1 -206.1 206.1C-219.9 192.1 -235.9 180.8 -248.7 166.2C-261.5 151.5 -271.1 133.5 -277.2 114.8C-283.3 96.1 -286 76.8 -289.2 57.5C-292.4 38.3 -296.2 19.1 -300 0L0 0Z" fill="#ec7bea"></path><path d="M0 250C-16 245.7 -32 241.3 -47 236.1C-61.9 230.8 -75.8 224.7 -91.3 220.4C-106.8 216.1 -123.9 213.7 -137.3 205.5C-150.7 197.3 -160.2 183.4 -171.7 171.7C-183.2 160.1 -196.6 150.7 -207.3 138.5C-217.9 126.3 -225.9 111.3 -231 95.7C-236.1 80.1 -238.3 64 -241 47.9C-243.7 31.9 -246.9 15.9 -250 0L0 0Z" fill="#db61ec"></path><path d="M0 200C-12.8 196.5 -25.6 193.1 -37.6 188.9C-49.5 184.7 -60.6 179.8 -73 176.3C-85.4 172.9 -99.2 170.9 -109.8 164.4C-120.5 157.8 -128.2 146.7 -137.4 137.4C-146.6 128.1 -157.3 120.6 -165.8 110.8C-174.4 101 -180.7 89 -184.8 76.5C-188.9 64.1 -190.6 51.2 -192.8 38.3C-195 25.5 -197.5 12.8 -200 0L0 0Z" fill="#c447ef"></path><path d="M0 150C-9.6 147.4 -19.2 144.8 -28.2 141.7C-37.1 138.5 -45.5 134.8 -54.8 132.2C-64.1 129.7 -74.4 128.2 -82.4 123.3C-90.4 118.4 -96.1 110 -103 103C-109.9 96 -118 90.4 -124.4 83.1C-130.8 75.8 -135.5 66.8 -138.6 57.4C-141.6 48.1 -143 38.4 -144.6 28.8C-146.2 19.1 -148.1 9.6 -150 0L0 0Z" fill="#a82df5"></path><path d="M0 100C-6.4 98.3 -12.8 96.5 -18.8 94.4C-24.8 92.3 -30.3 89.9 -36.5 88.2C-42.7 86.4 -49.6 85.5 -54.9 82.2C-60.3 78.9 -64.1 73.4 -68.7 68.7C-73.3 64 -78.6 60.3 -82.9 55.4C-87.2 50.5 -90.4 44.5 -92.4 38.3C-94.4 32 -95.3 25.6 -96.4 19.2C-97.5 12.8 -98.7 6.4 -100 0L0 0Z" fill="#8111fb"></path><path d="M0 50C-3.2 49.1 -6.4 48.3 -9.4 47.2C-12.4 46.2 -15.2 44.9 -18.3 44.1C-21.4 43.2 -24.8 42.7 -27.5 41.1C-30.1 39.5 -32 36.7 -34.3 34.3C-36.6 32 -39.3 30.1 -41.5 27.7C-43.6 25.3 -45.2 22.3 -46.2 19.1C-47.2 16 -47.7 12.8 -48.2 9.6C-48.7 6.4 -49.4 3.2 -50 0L0 0Z" fill="#6600ff"></path></g><g transform="translate(0, 900)"><path d="M0 -350C23.8 -350.9 47.7 -351.8 68.3 -343.3C88.9 -334.7 106.3 -316.7 127.4 -307.7C148.6 -298.6 173.4 -298.5 192.2 -287.7C211 -276.9 223.8 -255.5 236.9 -236.9C250 -218.3 263.4 -202.4 277.7 -185.6C292 -168.7 307.1 -150.8 315 -130.5C323 -110.2 323.9 -87.5 328.6 -65.4C333.2 -43.2 341.6 -21.6 350 0L0 0Z" fill="#fa95ea"></path><path d="M0 -300C20.4 -300.8 40.9 -301.6 58.5 -294.3C76.2 -286.9 91.1 -271.5 109.2 -263.7C127.3 -255.9 148.6 -255.8 164.8 -246.6C180.9 -237.4 191.8 -219 203 -203C214.3 -187.1 225.8 -173.5 238 -159.1C250.3 -144.6 263.2 -129.3 270 -111.9C276.9 -94.5 277.6 -75 281.6 -56C285.6 -37 292.8 -18.5 300 0L0 0Z" fill="#ec7bea"></path><path d="M0 -250C17 -250.7 34 -251.3 48.8 -245.2C63.5 -239.1 75.9 -226.2 91 -219.8C106.1 -213.3 123.9 -213.2 137.3 -205.5C150.7 -197.8 159.8 -182.5 169.2 -169.2C178.6 -155.9 188.2 -144.6 198.4 -132.5C208.6 -120.5 219.3 -107.7 225 -93.2C230.7 -78.7 231.4 -62.5 234.7 -46.7C238 -30.9 244 -15.4 250 0L0 0Z" fill="#db61ec"></path><path d="M0 -200C13.6 -200.5 27.2 -201.1 39 -196.2C50.8 -191.3 60.7 -181 72.8 -175.8C84.9 -170.6 99.1 -170.5 109.8 -164.4C120.6 -158.2 127.9 -146 135.4 -135.4C142.8 -124.7 150.5 -115.7 158.7 -106C166.8 -96.4 175.5 -86.2 180 -74.6C184.6 -63 185.1 -50 187.8 -37.3C190.4 -24.7 195.2 -12.3 200 0L0 0Z" fill="#c447ef"></path><path d="M0 -150C10.2 -150.4 20.4 -150.8 29.3 -147.1C38.1 -143.5 45.6 -135.7 54.6 -131.9C63.7 -128 74.3 -127.9 82.4 -123.3C90.4 -118.7 95.9 -109.5 101.5 -101.5C107.1 -93.5 112.9 -86.8 119 -79.5C125.1 -72.3 131.6 -64.6 135 -55.9C138.4 -47.2 138.8 -37.5 140.8 -28C142.8 -18.5 146.4 -9.3 150 0L0 0Z" fill="#a82df5"></path><path d="M0 -100C6.8 -100.3 13.6 -100.5 19.5 -98.1C25.4 -95.6 30.4 -90.5 36.4 -87.9C42.4 -85.3 49.5 -85.3 54.9 -82.2C60.3 -79.1 63.9 -73 67.7 -67.7C71.4 -62.4 75.3 -57.8 79.3 -53C83.4 -48.2 87.7 -43.1 90 -37.3C92.3 -31.5 92.5 -25 93.9 -18.7C95.2 -12.3 97.6 -6.2 100 0L0 0Z" fill="#8111fb"></path><path d="M0 -50C3.4 -50.1 6.8 -50.3 9.8 -49C12.7 -47.8 15.2 -45.2 18.2 -44C21.2 -42.7 24.8 -42.6 27.5 -41.1C30.1 -39.6 32 -36.5 33.8 -33.8C35.7 -31.2 37.6 -28.9 39.7 -26.5C41.7 -24.1 43.9 -21.5 45 -18.6C46.1 -15.7 46.3 -12.5 46.9 -9.3C47.6 -6.2 48.8 -3.1 50 0L0 0Z" fill="#6600ff"></path></g></svg>