<svg id="visual" viewBox="0 0 900 900" width="900" height="900" xmlns="http://www.w3.org/2000/svg" xmlns:xlink="http://www.w3.org/1999/xlink" version="1.1"><rect x="0" y="0" width="900" height="900" fill="#ffdbee"></rect><g transform="translate(444.0009018073433 425.501083918192)"><path d="M118.4 -150.6C171.3 -124.5 244.5 -113.8 279.5 -74.6C314.5 -35.4 311.3 32.3 288.7 91.3C266.2 150.3 224.2 200.6 172.8 239.6C121.5 278.5 60.7 306.3 18 281.5C-24.8 256.8 -49.6 179.6 -103.1 141.3C-156.6 103 -238.8 103.7 -273.1 71.4C-307.5 39.1 -294 -26 -268.5 -81.8C-242.9 -137.6 -205.2 -184.1 -158.4 -212.2C-111.7 -240.4 -55.8 -250.2 -11.6 -234.3C32.7 -218.4 65.4 -176.7 118.4 -150.6" fill="#c5004f"></path></g></svg>