<svg id="visual" viewBox="0 0 900 900" width="900" height="900" xmlns="http://www.w3.org/2000/svg" xmlns:xlink="http://www.w3.org/1999/xlink" version="1.1"><rect x="0" y="0" width="900" height="900" fill="#ffdbee"></rect><g transform="translate(479.5866131627617 420.9311717900524)"><path d="M161.1 -210.9C202.3 -191.8 224.8 -136.1 214.9 -88.3C205 -40.5 162.7 -0.7 141.3 39.9C119.8 80.5 119.3 122 99.2 169.8C79.2 217.6 39.6 271.8 -3.9 277.2C-47.4 282.6 -94.8 239.2 -130.7 196.5C-166.5 153.8 -190.7 111.8 -220.5 61.8C-250.3 11.8 -285.6 -46.2 -274.2 -91.5C-262.8 -136.7 -204.6 -169.1 -151.1 -184.2C-97.6 -199.3 -48.8 -197.1 5.6 -204.8C60 -212.5 119.9 -230 161.1 -210.9" fill="#c5004f"></path></g></svg>