<svg id="visual" viewBox="0 0 900 900" width="900" height="900" xmlns="http://www.w3.org/2000/svg" xmlns:xlink="http://www.w3.org/1999/xlink" version="1.1"><rect x="0" y="0" width="900" height="900" fill="#ffdbee"></rect><g transform="translate(403.5937140013337 423.0544440905112)"><path d="M137 -162.3C190.5 -149.6 255.7 -127 273.4 -85.7C291 -44.5 261.1 15.3 234.4 69.6C207.8 124 184.4 172.8 145.9 211C107.4 249.1 53.7 276.6 14.5 256.6C-24.7 236.6 -49.4 169.3 -69.4 125.1C-89.5 81 -104.9 60.1 -125.9 32.2C-146.8 4.4 -173.3 -30.2 -182.4 -76.9C-191.5 -123.6 -183.3 -182.4 -150.1 -201.5C-116.8 -220.7 -58.4 -200.4 -8.3 -188.9C41.7 -177.4 83.5 -174.9 137 -162.3" fill="#c5004f"></path></g></svg>