<?xml version="1.0" encoding="UTF-8" standalone="no"?>
<!DOCTYPE svg PUBLIC "-//W3C//DTD SVG 1.1//EN" "http://www.w3.org/Graphics/SVG/1.1/DTD/svg11.dtd">
<svg version="1.1" xmlns="http://www.w3.org/2000/svg" xmlns:xlink="http://www.w3.org/1999/xlink" preserveAspectRatio="xMidYMid meet" viewBox="153.7163157894735 144.21052631578934 310.0000000000001 310" width="310" height="310"><defs><path d="M463.72 299.21C463.72 384.76 394.26 454.21 308.72 454.21C223.17 454.21 153.72 384.76 153.72 299.21C153.72 213.66 223.17 144.21 308.72 144.21C394.26 144.21 463.72 213.66 463.72 299.21Z" id="bxmAg33iH"></path><path d="M320.76 149.97L326.73 150.59L332.63 151.44L338.45 152.52L344.19 153.84L349.85 155.37L355.41 157.13L360.88 159.09L366.24 161.27L371.5 163.65L376.66 166.23L381.69 169L386.61 171.96L391.4 175.11L396.06 178.43L400.59 181.93L404.98 185.6L409.22 189.43L413.32 193.43L417.26 197.58L421.05 201.88L424.67 206.32L428.13 210.91L431.41 215.63L434.52 220.48L437.44 225.46L440.18 230.56L442.72 235.78L445.07 241.11L447.22 246.55L449.16 252.08L450.89 257.72L452.41 263.44L453.71 269.26L454.78 275.16L455.62 281.13L456.22 287.18L456.59 293.29L456.72 299.47L456.59 305.65L456.22 311.77L455.62 317.82L454.78 323.79L453.71 329.69L452.41 335.5L450.89 341.23L449.16 346.86L447.22 352.4L445.07 357.84L442.72 363.17L440.18 368.38L437.44 373.48L434.52 378.46L431.41 383.32L428.13 388.04L424.67 392.62L421.05 397.07L417.26 401.37L413.32 405.52L409.22 409.51L404.98 413.35L400.59 417.02L396.06 420.52L391.4 423.84L386.61 426.99L381.69 429.95L376.66 432.72L371.5 435.3L366.24 437.68L360.88 439.85L355.41 441.82L349.85 443.58L344.19 445.11L338.45 446.42L332.63 447.51L328.52 448.1L328.58 447.35L328.61 446.48L328.62 445.6L328.6 444.73L328.56 443.85L328.48 442.86L328.38 441.81L328.25 440.71L328.09 439.55L327.9 438.33L327.68 437.06L327.43 435.73L327.16 434.34L326.86 432.89L326.53 431.39L326.17 429.83L325.78 428.21L325.37 426.54L324.93 424.81L324.46 423.02L323.96 421.17L323.43 419.27L322.87 417.31L322.29 415.29L321.68 413.22L321.04 411.09L320.37 408.9L319.67 406.66L318.95 404.35L318.2 401.99L317.42 399.58L316.61 397.1L315.77 394.57L314.9 391.98L314.01 389.34L313.09 386.63L312.14 383.87L311.16 381.06L310.15 378.18L309.12 375.25L308.06 372.26L306.97 369.22L305.85 366.11L304.7 362.95L303.53 359.74L292.74 329.78L292.59 329.37L292.2 328.33L291.76 327.33L291.27 326.35L290.75 325.42L290.19 324.51L289.58 323.65L288.95 322.81L288.28 322.02L287.57 321.26L286.84 320.54L286.07 319.86L285.28 319.22L284.46 318.61L283.62 318.05L282.75 317.53L281.86 317.04L280.96 316.6L280.03 316.2L279.09 315.84L278.13 315.52L277.16 315.25L276.18 315.02L275.19 314.84L274.19 314.7L273.18 314.6L272.17 314.55L271.16 314.55L270.14 314.59L269.13 314.68L268.11 314.82L267.1 315L266.09 315.24L265.09 315.52L264.1 315.85L263.11 316.24L262.14 316.67L261.18 317.15L260.24 317.69L259.31 318.28L258.4 318.92L256.19 320.56L255.57 321.03L254.96 321.51L254.37 322.01L253.79 322.52L253.23 323.04L252.68 323.58L252.15 324.13L251.63 324.69L251.12 325.26L250.63 325.85L250.16 326.44L249.7 327.04L249.25 327.66L248.82 328.29L248.41 328.92L248.01 329.57L247.63 330.22L247.27 330.88L246.92 331.55L246.58 332.23L246.27 332.92L245.97 333.61L245.69 334.32L245.42 335.02L245.17 335.74L244.94 336.46L244.73 337.19L244.53 337.92L244.36 338.66L244.19 339.4L244.05 340.15L243.93 340.91L243.82 341.66L243.74 342.42L243.67 343.19L243.62 343.96L243.59 344.73L243.58 345.5L243.58 346.28L243.61 347.05L247.81 436.24L245.74 435.3L240.59 432.72L235.55 429.95L230.64 426.99L225.84 423.84L221.18 420.52L216.65 417.02L212.27 413.35L208.02 409.51L203.92 405.52L199.98 401.37L196.19 397.07L192.57 392.62L189.12 388.04L185.83 383.32L182.73 378.46L179.8 373.48L177.07 368.38L174.52 363.17L172.17 357.84L170.02 352.4L168.08 346.86L166.35 341.23L164.83 335.5L163.54 329.69L162.47 323.79L161.62 317.82L161.02 311.77L160.65 305.65L160.53 299.47L160.65 293.29L161.02 287.18L161.62 281.13L162.47 275.16L163.54 269.26L164.83 263.44L166.35 257.72L168.08 252.08L170.02 246.55L172.17 241.11L174.52 235.78L177.07 230.56L179.8 225.46L182.73 220.48L185.83 215.63L189.12 210.91L192.57 206.32L196.19 201.88L199.98 197.58L203.92 193.43L208.02 189.43L212.27 185.6L216.65 181.93L221.18 178.43L225.84 175.11L230.64 171.96L235.55 169L240.59 166.23L245.74 163.65L251 161.27L256.37 159.09L261.83 157.13L267.4 155.37L273.05 153.84L278.79 152.52L284.61 151.44L290.51 150.59L296.48 149.97L302.52 149.6L308.62 149.47L314.72 149.6L320.76 149.97Z" id="b1wrsb9bsF"></path><linearGradient id="gradienta1itC2N9Xv" gradientUnits="userSpaceOnUse" x1="212.89" y1="198.72" x2="400.2" y2="417.72"><stop style="stop-color: #9a77ff;stop-opacity: 1" offset="0%"></stop><stop style="stop-color: #7a2c2c;stop-opacity: 1" offset="100%"></stop></linearGradient><path d="M288.42 260C288.42 276.56 274.98 290 258.42 290C241.86 290 228.42 276.56 228.42 260C228.42 243.44 241.86 230 258.42 230C274.98 230 288.42 243.44 288.42 260Z" id="b4Bfk9vXLl"></path><linearGradient id="gradienta4MwVG4RrM" gradientUnits="userSpaceOnUse" x1="285.76" y1="265.79" x2="233.16" y2="284.74"><stop style="stop-color: #ab1313;stop-opacity: 1" offset="0%"></stop><stop style="stop-color: #3900ff;stop-opacity: 1" offset="100%"></stop></linearGradient><path d="M293.16 260C293.16 279.17 277.59 294.74 258.42 294.74C239.25 294.74 223.68 279.17 223.68 260C223.68 240.83 239.25 225.26 258.42 225.26C277.59 225.26 293.16 240.83 293.16 260Z" id="d1nVSsFgZC"></path><path d="M445 306.58C445 375.57 388.99 431.58 320 431.58C251.01 431.58 195 375.57 195 306.58C195 237.59 251.01 181.58 320 181.58C388.99 181.58 445 237.59 445 306.58Z" id="a2qmtiHgbR"></path><path d="M415.19 313.12C420.25 309.85 426.99 311.3 430.26 316.35C432.52 319.84 432.29 319.49 434.28 322.56C438.3 328.77 436.52 337.07 430.31 341.08C427.14 343.13 426.16 343.77 422.31 346.26C417.98 349.06 412.2 347.82 409.4 343.49C406.97 339.74 405.41 337.32 403.14 333.81C399.89 328.79 401.33 322.09 406.35 318.84C409.95 316.52 411.61 315.44 415.19 313.12Z" id="amfCyCxN"></path><path d="M392.06 244.64C401.2 238.72 413.42 241.34 419.33 250.48C423.42 256.8 423.01 256.17 426.61 261.73C433.88 272.97 430.66 287.99 419.42 295.26C414.65 298.35 415.78 297.62 409.78 301.5C401.95 306.57 391.48 304.33 386.41 296.49C382.01 289.69 379.18 285.31 375.08 278.97C369.2 269.88 371.8 257.75 380.89 251.87C386.43 248.28 386.53 248.21 392.06 244.64Z" id="l1EM89xWnc"></path></defs><g><g><g><use xlink:href="#bxmAg33iH" opacity="1" fill="#ffffff" fill-opacity="1"></use><g><use xlink:href="#bxmAg33iH" opacity="1" fill-opacity="0" stroke="#e30078" stroke-width="1" stroke-opacity="0.99"></use></g></g><g><use xlink:href="#b1wrsb9bsF" opacity="1" fill="url(#gradienta1itC2N9Xv)"></use><g><use xlink:href="#b1wrsb9bsF" opacity="1" fill-opacity="0" stroke="#bb578c" stroke-width="1" stroke-opacity="0"></use></g></g><g><use xlink:href="#b4Bfk9vXLl" opacity="1" fill="url(#gradienta4MwVG4RrM)"></use><g><use xlink:href="#b4Bfk9vXLl" opacity="1" fill-opacity="0" stroke="#d0b617" stroke-width="1" stroke-opacity="0"></use></g></g><g><use xlink:href="#d1nVSsFgZC" opacity="1" fill="#d1d1d1" fill-opacity="0.15"></use><g><use xlink:href="#d1nVSsFgZC" opacity="1" fill-opacity="0" stroke="#d0b617" stroke-width="1" stroke-opacity="0"></use></g></g><g><use xlink:href="#a2qmtiHgbR" opacity="1" fill="#d1d1d1" fill-opacity="0.15"></use><g><use xlink:href="#a2qmtiHgbR" opacity="1" fill-opacity="0" stroke="#d0b617" stroke-width="1" stroke-opacity="0"></use></g></g><g><use xlink:href="#amfCyCxN" opacity="1" fill="#d1d1d1" fill-opacity="0.09"></use></g><g><use xlink:href="#l1EM89xWnc" opacity="1" fill="#d1d1d1" fill-opacity="0.14"></use><g><use xlink:href="#l1EM89xWnc" opacity="1" fill-opacity="0" stroke="#d0b617" stroke-width="1" stroke-opacity="0"></use></g></g></g></g></svg>