<svg id="visual" viewBox="0 0 900 80" width="900" height="80" xmlns="http://www.w3.org/2000/svg" xmlns:xlink="http://www.w3.org/1999/xlink" version="1.1"><path d="M0 53L12.5 50C25 47 50 41 75 43.8C100 46.7 125 58.3 150 58.5C175 58.7 200 47.3 225 46.7C250 46 275 56 300 58.7C325 61.3 350 56.7 375 51.8C400 47 425 42 450 39.7C475 37.3 500 37.7 525 37.5C550 37.3 575 36.7 600 37.7C625 38.7 650 41.3 675 45.5C700 49.7 725 55.3 750 54.5C775 53.7 800 46.3 825 47.5C850 48.7 875 58.3 887.5 63.2L900 68L900 0L887.5 0C875 0 850 0 825 0C800 0 775 0 750 0C725 0 700 0 675 0C650 0 625 0 600 0C575 0 550 0 525 0C500 0 475 0 450 0C425 0 400 0 375 0C350 0 325 0 300 0C275 0 250 0 225 0C200 0 175 0 150 0C125 0 100 0 75 0C50 0 25 0 12.5 0L0 0Z" fill="#c33b72"></path><path d="M0 34L12.5 34.5C25 35 50 36 75 35.8C100 35.7 125 34.3 150 33.7C175 33 200 33 225 34.3C250 35.7 275 38.3 300 38.8C325 39.3 350 37.7 375 38.5C400 39.3 425 42.7 450 44C475 45.3 500 44.7 525 45.2C550 45.7 575 47.3 600 45.5C625 43.7 650 38.3 675 37.2C700 36 725 39 750 38.2C775 37.3 800 32.7 825 30.5C850 28.3 875 28.7 887.5 28.8L900 29L900 0L887.5 0C875 0 850 0 825 0C800 0 775 0 750 0C725 0 700 0 675 0C650 0 625 0 600 0C575 0 550 0 525 0C500 0 475 0 450 0C425 0 400 0 375 0C350 0 325 0 300 0C275 0 250 0 225 0C200 0 175 0 150 0C125 0 100 0 75 0C50 0 25 0 12.5 0L0 0Z" fill="#a43266"></path><path d="M0 41L12.5 38.8C25 36.7 50 32.3 75 29.5C100 26.7 125 25.3 150 27.3C175 29.3 200 34.7 225 36.7C250 38.7 275 37.3 300 36.5C325 35.7 350 35.3 375 34.8C400 34.3 425 33.7 450 32.2C475 30.7 500 28.3 525 28.2C550 28 575 30 600 33C625 36 650 40 675 38.8C700 37.7 725 31.3 750 30.3C775 29.3 800 33.7 825 36C850 38.3 875 38.7 887.5 38.8L900 39L900 0L887.5 0C875 0 850 0 825 0C800 0 775 0 750 0C725 0 700 0 675 0C650 0 625 0 600 0C575 0 550 0 525 0C500 0 475 0 450 0C425 0 400 0 375 0C350 0 325 0 300 0C275 0 250 0 225 0C200 0 175 0 150 0C125 0 100 0 75 0C50 0 25 0 12.5 0L0 0Z" fill="#872a59"></path><path d="M0 13L12.5 14.2C25 15.3 50 17.7 75 20.7C100 23.7 125 27.3 150 28.7C175 30 200 29 225 29.2C250 29.3 275 30.7 300 29C325 27.3 350 22.7 375 22.7C400 22.7 425 27.3 450 26.5C475 25.7 500 19.3 525 19C550 18.7 575 24.3 600 24.8C625 25.3 650 20.7 675 20.8C700 21 725 26 750 28.7C775 31.3 800 31.7 825 30.2C850 28.7 875 25.3 887.5 23.7L900 22L900 0L887.5 0C875 0 850 0 825 0C800 0 775 0 750 0C725 0 700 0 675 0C650 0 625 0 600 0C575 0 550 0 525 0C500 0 475 0 450 0C425 0 400 0 375 0C350 0 325 0 300 0C275 0 250 0 225 0C200 0 175 0 150 0C125 0 100 0 75 0C50 0 25 0 12.5 0L0 0Z" fill="#6b224a"></path><path d="M0 6L12.5 7.3C25 8.7 50 11.3 75 12.2C100 13 125 12 150 12.2C175 12.3 200 13.7 225 15C250 16.3 275 17.7 300 16.8C325 16 350 13 375 11.7C400 10.3 425 10.7 450 12.2C475 13.7 500 16.3 525 16.8C550 17.3 575 15.7 600 14.7C625 13.7 650 13.3 675 12.7C700 12 725 11 750 10.7C775 10.3 800 10.7 825 10.2C850 9.7 875 8.3 887.5 7.7L900 7L900 0L887.5 0C875 0 850 0 825 0C800 0 775 0 750 0C725 0 700 0 675 0C650 0 625 0 600 0C575 0 550 0 525 0C500 0 475 0 450 0C425 0 400 0 375 0C350 0 325 0 300 0C275 0 250 0 225 0C200 0 175 0 150 0C125 0 100 0 75 0C50 0 25 0 12.5 0L0 0Z" fill="#511a3b"></path></svg>