<svg id="visual" viewBox="0 0 900 100" width="900" height="100" xmlns="http://www.w3.org/2000/svg" xmlns:xlink="http://www.w3.org/1999/xlink" version="1.1"><path d="M0 72L7.8 72C15.7 72 31.3 72 47.2 71.8C63 71.7 79 71.3 94.8 70.8C110.7 70.3 126.3 69.7 142 69.2C157.7 68.7 173.3 68.3 189.2 66.5C205 64.7 221 61.3 236.8 61.8C252.7 62.3 268.3 66.7 284.2 68.7C300 70.7 316 70.3 331.8 68.8C347.7 67.3 363.3 64.7 379 62.5C394.7 60.3 410.3 58.7 426.2 58.2C442 57.7 458 58.3 473.8 58.8C489.7 59.3 505.3 59.7 521 60.2C536.7 60.7 552.3 61.3 568.2 61C584 60.7 600 59.3 615.8 59.8C631.7 60.3 647.3 62.7 663.2 64.2C679 65.7 695 66.3 710.8 67.3C726.7 68.3 742.3 69.7 758 69.7C773.7 69.7 789.3 68.3 805.2 67.7C821 67 837 67 852.8 67.7C868.7 68.3 884.3 69.7 892.2 70.3L900 71L900 101L892.2 101C884.3 101 868.7 101 852.8 101C837 101 821 101 805.2 101C789.3 101 773.7 101 758 101C742.3 101 726.7 101 710.8 101C695 101 679 101 663.2 101C647.3 101 631.7 101 615.8 101C600 101 584 101 568.2 101C552.3 101 536.7 101 521 101C505.3 101 489.7 101 473.8 101C458 101 442 101 426.2 101C410.3 101 394.7 101 379 101C363.3 101 347.7 101 331.8 101C316 101 300 101 284.2 101C268.3 101 252.7 101 236.8 101C221 101 205 101 189.2 101C173.3 101 157.7 101 142 101C126.3 101 110.7 101 94.8 101C79 101 63 101 47.2 101C31.3 101 15.7 101 7.8 101L0 101Z" fill="#ac3ea4"></path><path d="M0 70L7.8 69.7C15.7 69.3 31.3 68.7 47.2 69.3C63 70 79 72 94.8 71.2C110.7 70.3 126.3 66.7 142 65.2C157.7 63.7 173.3 64.3 189.2 66.3C205 68.3 221 71.7 236.8 72.7C252.7 73.7 268.3 72.3 284.2 70.3C300 68.3 316 65.7 331.8 64.3C347.7 63 363.3 63 379 64.5C394.7 66 410.3 69 426.2 70.2C442 71.3 458 70.7 473.8 71C489.7 71.3 505.3 72.7 521 73.7C536.7 74.7 552.3 75.3 568.2 74C584 72.7 600 69.3 615.8 68.8C631.7 68.3 647.3 70.7 663.2 72.2C679 73.7 695 74.3 710.8 73.7C726.7 73 742.3 71 758 70C773.7 69 789.3 69 805.2 68.3C821 67.7 837 66.3 852.8 66.8C868.7 67.3 884.3 69.7 892.2 70.8L900 72L900 101L892.2 101C884.3 101 868.7 101 852.8 101C837 101 821 101 805.2 101C789.3 101 773.7 101 758 101C742.3 101 726.7 101 710.8 101C695 101 679 101 663.2 101C647.3 101 631.7 101 615.8 101C600 101 584 101 568.2 101C552.3 101 536.7 101 521 101C505.3 101 489.7 101 473.8 101C458 101 442 101 426.2 101C410.3 101 394.7 101 379 101C363.3 101 347.7 101 331.8 101C316 101 300 101 284.2 101C268.3 101 252.7 101 236.8 101C221 101 205 101 189.2 101C173.3 101 157.7 101 142 101C126.3 101 110.7 101 94.8 101C79 101 63 101 47.2 101C31.3 101 15.7 101 7.8 101L0 101Z" fill="#9e3690"></path><path d="M0 75L7.8 73.8C15.7 72.7 31.3 70.3 47.2 69.2C63 68 79 68 94.8 69.8C110.7 71.7 126.3 75.3 142 76.7C157.7 78 173.3 77 189.2 75.7C205 74.3 221 72.7 236.8 72.3C252.7 72 268.3 73 284.2 73.5C300 74 316 74 331.8 73.7C347.7 73.3 363.3 72.7 379 72.2C394.7 71.7 410.3 71.3 426.2 72.2C442 73 458 75 473.8 75.8C489.7 76.7 505.3 76.3 521 75.7C536.7 75 552.3 74 568.2 73.2C584 72.3 600 71.7 615.8 71C631.7 70.3 647.3 69.7 663.2 70C679 70.3 695 71.7 710.8 73.3C726.7 75 742.3 77 758 76.7C773.7 76.3 789.3 73.7 805.2 73.7C821 73.7 837 76.3 852.8 76.7C868.7 77 884.3 75 892.2 74L900 73L900 101L892.2 101C884.3 101 868.7 101 852.8 101C837 101 821 101 805.2 101C789.3 101 773.7 101 758 101C742.3 101 726.7 101 710.8 101C695 101 679 101 663.2 101C647.3 101 631.7 101 615.8 101C600 101 584 101 568.2 101C552.3 101 536.7 101 521 101C505.3 101 489.7 101 473.8 101C458 101 442 101 426.2 101C410.3 101 394.7 101 379 101C363.3 101 347.7 101 331.8 101C316 101 300 101 284.2 101C268.3 101 252.7 101 236.8 101C221 101 205 101 189.2 101C173.3 101 157.7 101 142 101C126.3 101 110.7 101 94.8 101C79 101 63 101 47.2 101C31.3 101 15.7 101 7.8 101L0 101Z" fill="#8f2f7c"></path><path d="M0 74L7.8 74.2C15.7 74.3 31.3 74.7 47.2 75.2C63 75.7 79 76.3 94.8 76.2C110.7 76 126.3 75 142 75.2C157.7 75.3 173.3 76.7 189.2 78.2C205 79.7 221 81.3 236.8 80.5C252.7 79.7 268.3 76.3 284.2 74.8C300 73.3 316 73.7 331.8 74.2C347.7 74.7 363.3 75.3 379 76C394.7 76.7 410.3 77.3 426.2 77.8C442 78.3 458 78.7 473.8 79.3C489.7 80 505.3 81 521 81.5C536.7 82 552.3 82 568.2 81.2C584 80.3 600 78.7 615.8 78.7C631.7 78.7 647.3 80.3 663.2 79.7C679 79 695 76 710.8 75.3C726.7 74.7 742.3 76.3 758 77.5C773.7 78.7 789.3 79.3 805.2 80C821 80.7 837 81.3 852.8 81.3C868.7 81.3 884.3 80.7 892.2 80.3L900 80L900 101L892.2 101C884.3 101 868.7 101 852.8 101C837 101 821 101 805.2 101C789.3 101 773.7 101 758 101C742.3 101 726.7 101 710.8 101C695 101 679 101 663.2 101C647.3 101 631.7 101 615.8 101C600 101 584 101 568.2 101C552.3 101 536.7 101 521 101C505.3 101 489.7 101 473.8 101C458 101 442 101 426.2 101C410.3 101 394.7 101 379 101C363.3 101 347.7 101 331.8 101C316 101 300 101 284.2 101C268.3 101 252.7 101 236.8 101C221 101 205 101 189.2 101C173.3 101 157.7 101 142 101C126.3 101 110.7 101 94.8 101C79 101 63 101 47.2 101C31.3 101 15.7 101 7.8 101L0 101Z" fill="#80296a"></path><path d="M0 81L7.8 81.8C15.7 82.7 31.3 84.3 47.2 84.8C63 85.3 79 84.7 94.8 84C110.7 83.3 126.3 82.7 142 82.2C157.7 81.7 173.3 81.3 189.2 81.3C205 81.3 221 81.7 236.8 81.8C252.7 82 268.3 82 284.2 82C300 82 316 82 331.8 82C347.7 82 363.3 82 379 82.7C394.7 83.3 410.3 84.7 426.2 84.2C442 83.7 458 81.3 473.8 80.5C489.7 79.7 505.3 80.3 521 81.5C536.7 82.7 552.3 84.3 568.2 84.5C584 84.7 600 83.3 615.8 83C631.7 82.7 647.3 83.3 663.2 84C679 84.7 695 85.3 710.8 85.2C726.7 85 742.3 84 758 83C773.7 82 789.3 81 805.2 80.5C821 80 837 80 852.8 80.5C868.7 81 884.3 82 892.2 82.5L900 83L900 101L892.2 101C884.3 101 868.7 101 852.8 101C837 101 821 101 805.2 101C789.3 101 773.7 101 758 101C742.3 101 726.7 101 710.8 101C695 101 679 101 663.2 101C647.3 101 631.7 101 615.8 101C600 101 584 101 568.2 101C552.3 101 536.7 101 521 101C505.3 101 489.7 101 473.8 101C458 101 442 101 426.2 101C410.3 101 394.7 101 379 101C363.3 101 347.7 101 331.8 101C316 101 300 101 284.2 101C268.3 101 252.7 101 236.8 101C221 101 205 101 189.2 101C173.3 101 157.7 101 142 101C126.3 101 110.7 101 94.8 101C79 101 63 101 47.2 101C31.3 101 15.7 101 7.8 101L0 101Z" fill="#712459"></path><path d="M0 87L7.8 86.7C15.7 86.3 31.3 85.7 47.2 85.5C63 85.3 79 85.7 94.8 86C110.7 86.3 126.3 86.7 142 86.8C157.7 87 173.3 87 189.2 86.5C205 86 221 85 236.8 85.2C252.7 85.3 268.3 86.7 284.2 87C300 87.3 316 86.7 331.8 86.7C347.7 86.7 363.3 87.3 379 87.3C394.7 87.3 410.3 86.7 426.2 86.5C442 86.3 458 86.7 473.8 86.3C489.7 86 505.3 85 521 85.3C536.7 85.7 552.3 87.3 568.2 87.8C584 88.3 600 87.7 615.8 86.8C631.7 86 647.3 85 663.2 84.7C679 84.3 695 84.7 710.8 84.8C726.7 85 742.3 85 758 85.3C773.7 85.7 789.3 86.3 805.2 87C821 87.7 837 88.3 852.8 88.3C868.7 88.3 884.3 87.7 892.2 87.3L900 87L900 101L892.2 101C884.3 101 868.7 101 852.8 101C837 101 821 101 805.2 101C789.3 101 773.7 101 758 101C742.3 101 726.7 101 710.8 101C695 101 679 101 663.2 101C647.3 101 631.7 101 615.8 101C600 101 584 101 568.2 101C552.3 101 536.7 101 521 101C505.3 101 489.7 101 473.8 101C458 101 442 101 426.2 101C410.3 101 394.7 101 379 101C363.3 101 347.7 101 331.8 101C316 101 300 101 284.2 101C268.3 101 252.7 101 236.8 101C221 101 205 101 189.2 101C173.3 101 157.7 101 142 101C126.3 101 110.7 101 94.8 101C79 101 63 101 47.2 101C31.3 101 15.7 101 7.8 101L0 101Z" fill="#611f49"></path><path d="M0 91L7.8 90.7C15.7 90.3 31.3 89.7 47.2 90.2C63 90.7 79 92.3 94.8 92.7C110.7 93 126.3 92 142 91.8C157.7 91.7 173.3 92.3 189.2 92.5C205 92.7 221 92.3 236.8 92C252.7 91.7 268.3 91.3 284.2 91.5C300 91.7 316 92.3 331.8 92.8C347.7 93.3 363.3 93.7 379 93.5C394.7 93.3 410.3 92.7 426.2 92.5C442 92.3 458 92.7 473.8 92.2C489.7 91.7 505.3 90.3 521 90.2C536.7 90 552.3 91 568.2 91.3C584 91.7 600 91.3 615.8 91.2C631.7 91 647.3 91 663.2 91.3C679 91.7 695 92.3 710.8 92.3C726.7 92.3 742.3 91.7 758 91.2C773.7 90.7 789.3 90.3 805.2 90.2C821 90 837 90 852.8 90.2C868.7 90.3 884.3 90.7 892.2 90.8L900 91L900 101L892.2 101C884.3 101 868.7 101 852.8 101C837 101 821 101 805.2 101C789.3 101 773.7 101 758 101C742.3 101 726.7 101 710.8 101C695 101 679 101 663.2 101C647.3 101 631.7 101 615.8 101C600 101 584 101 568.2 101C552.3 101 536.7 101 521 101C505.3 101 489.7 101 473.8 101C458 101 442 101 426.2 101C410.3 101 394.7 101 379 101C363.3 101 347.7 101 331.8 101C316 101 300 101 284.2 101C268.3 101 252.7 101 236.8 101C221 101 205 101 189.2 101C173.3 101 157.7 101 142 101C126.3 101 110.7 101 94.8 101C79 101 63 101 47.2 101C31.3 101 15.7 101 7.8 101L0 101Z" fill="#511a3b"></path></svg>